<?xml version="1.0" encoding="utf-8"?>
<!-- Generator: Adobe Illustrator 15.0.0, SVG Export Plug-In . SVG Version: 6.00 Build 0)  -->
<!DOCTYPE svg PUBLIC "-//W3C//DTD SVG 1.0//EN" "http://www.w3.org/TR/2001/REC-SVG-20010904/DTD/svg10.dtd" [
	<!ENTITY ns_extend "http://ns.adobe.com/Extensibility/1.0/">
	<!ENTITY ns_ai "http://ns.adobe.com/AdobeIllustrator/10.0/">
	<!ENTITY ns_graphs "http://ns.adobe.com/Graphs/1.0/">
	<!ENTITY ns_vars "http://ns.adobe.com/Variables/1.0/">
	<!ENTITY ns_imrep "http://ns.adobe.com/ImageReplacement/1.0/">
	<!ENTITY ns_sfw "http://ns.adobe.com/SaveForWeb/1.0/">
	<!ENTITY ns_custom "http://ns.adobe.com/GenericCustomNamespace/1.0/">
	<!ENTITY ns_adobe_xpath "http://ns.adobe.com/XPath/1.0/">
]>
<svg version="1.0" id="Ebene_1" xmlns:x="&ns_extend;" xmlns:i="&ns_ai;" xmlns:graph="&ns_graphs;"
	 xmlns="http://www.w3.org/2000/svg" xmlns:xlink="http://www.w3.org/1999/xlink" x="0px" y="0px" width="141.73px"
	 height="141.73px" viewBox="0 0 141.73 141.73" enable-background="new 0 0 141.73 141.73" xml:space="preserve">
<metadata>
	<sfw  xmlns="&ns_sfw;">
		<slices></slices>
		<sliceSourceBounds  width="49.635" height="74.02" x="26.06" y="-102.396" bottomLeftOrigin="true"></sliceSourceBounds>
	</sfw>
</metadata>
<g>
	<rect x="26.56" y="28.876" fill="#FFFFFF" width="22.964" height="22.964"/>
	<path style="enable-background:new 0 0 257.8 270.9;" d="M50.024,52.34H26.06V28.376h23.964V52.34z M27.06,51.34h21.964V29.376H27.06V51.34z"/>
</g>
<g>
	<rect x="26.56" y="53.981" fill="#FFFFFF" width="22.963" height="22.963"/>
	<path style="enable-background:new 0 0 257.8 270.9;" d="M50.023,77.444H26.06V53.481h23.963V77.444z M27.06,76.444h21.963V54.481H27.06V76.444z"/>
</g>
<g>
	<rect x="26.56" y="78.933" fill="#FFFFFF" width="22.963" height="22.964"/>
	<path style="enable-background:new 0 0 257.8 270.9;" d="M50.023,102.396H26.06V78.433h23.963V102.396z M27.06,101.396h21.963V79.433H27.06V101.396z"/>
</g>
<g>
	<rect x="52.231" y="53.98" fill="#FFFFFF" width="22.964" height="22.963"/>
	<path style="enable-background:new 0 0 257.8 270.9;" d="M75.695,77.443H51.731V53.48h23.964V77.443z M52.731,76.443h21.964V54.48H52.731V76.443z"/>
</g>
</svg>
