<?xml version="1.0" encoding="utf-8"?>
<!-- Generator: Adobe Illustrator 15.0.0, SVG Export Plug-In . SVG Version: 6.00 Build 0)  -->
<!DOCTYPE svg PUBLIC "-//W3C//DTD SVG 1.0//EN" "http://www.w3.org/TR/2001/REC-SVG-20010904/DTD/svg10.dtd" [
	<!ENTITY ns_extend "http://ns.adobe.com/Extensibility/1.0/">
	<!ENTITY ns_ai "http://ns.adobe.com/AdobeIllustrator/10.0/">
	<!ENTITY ns_graphs "http://ns.adobe.com/Graphs/1.0/">
	<!ENTITY ns_vars "http://ns.adobe.com/Variables/1.0/">
	<!ENTITY ns_imrep "http://ns.adobe.com/ImageReplacement/1.0/">
	<!ENTITY ns_sfw "http://ns.adobe.com/SaveForWeb/1.0/">
	<!ENTITY ns_custom "http://ns.adobe.com/GenericCustomNamespace/1.0/">
	<!ENTITY ns_adobe_xpath "http://ns.adobe.com/XPath/1.0/">
]>
<svg version="1.0" id="Ebene_1" xmlns:x="&ns_extend;" xmlns:i="&ns_ai;" xmlns:graph="&ns_graphs;"
	 xmlns="http://www.w3.org/2000/svg" xmlns:xlink="http://www.w3.org/1999/xlink" x="0px" y="0px" width="141.73px"
	 height="141.73px" viewBox="0 0 141.73 141.73" enable-background="new 0 0 141.73 141.73" xml:space="preserve">
<metadata>
	<sfw  xmlns="&ns_sfw;">
		<slices></slices>
		<sliceSourceBounds  width="51" height="46.105" x="46.852" y="-86.566" bottomLeftOrigin="true"></sliceSourceBounds>
	</sfw>
</metadata>
<g>
	<path style="enable-background:new 0 0 257.8 270.9;" d="M50.667,41.325v6.769h7.825v-6.769h2.112v16.177h-2.112v-7.584h-7.825v7.584h-2.112V41.325H50.667z"/>
	<path style="enable-background:new 0 0 257.8 270.9;" d="M74.668,51.598c0,4.296-3,6.168-5.784,6.168c-3.12,0-5.568-2.304-5.568-5.977c0-3.864,2.568-6.145,5.76-6.145
		C72.412,45.646,74.668,48.07,74.668,51.598z M65.476,51.718c0,2.544,1.44,4.464,3.504,4.464c2.016,0,3.528-1.896,3.528-4.512
		c0-1.968-0.984-4.44-3.48-4.44C66.556,47.229,65.476,49.534,65.476,51.718z"/>
	<path style="enable-background:new 0 0 257.8 270.9;" d="M77.331,40.461h2.112v17.042h-2.112V40.461z"/>
	<path style="enable-background:new 0 0 257.8 270.9;" d="M91.156,54.718c0,1.008,0.048,1.992,0.168,2.784h-1.896l-0.168-1.464h-0.072c-0.647,0.912-1.896,1.729-3.552,1.729
		c-2.353,0-3.553-1.656-3.553-3.336c0-2.808,2.497-4.344,6.985-4.32v-0.24c0-0.936-0.265-2.688-2.641-2.664
		c-1.104,0-2.232,0.312-3.049,0.864l-0.479-1.417c0.96-0.6,2.376-1.008,3.841-1.008c3.552,0,4.416,2.424,4.416,4.729V54.718z
		 M89.115,51.574c-2.304-0.048-4.92,0.36-4.92,2.616c0,1.393,0.912,2.017,1.969,2.017c1.535,0,2.52-0.96,2.855-1.944
		c0.072-0.24,0.096-0.48,0.096-0.672V51.574z"/>
	<path style="enable-background:new 0 0 257.8 270.9;" d="M51.868,70.125h2.112v10.824c0,4.297-2.112,5.617-4.896,5.617c-0.792,0-1.728-0.168-2.232-0.385l0.288-1.703
		c0.432,0.168,1.056,0.313,1.776,0.313c1.872,0,2.952-0.842,2.952-4.01V70.125z"/>
	<path style="enable-background:new 0 0 257.8 270.9;" d="M67.108,83.109c0,1.225,0.024,2.281,0.096,3.193h-1.872l-0.12-1.896h-0.048c-0.528,0.936-1.776,2.16-3.84,2.16
		c-1.824,0-4.008-1.033-4.008-5.088v-6.793h2.112v6.408c0,2.209,0.696,3.721,2.592,3.721c1.416,0,2.4-0.984,2.784-1.945
		c0.12-0.287,0.192-0.672,0.192-1.08v-7.104h2.112V83.109z"/>
	<path style="enable-background:new 0 0 257.8 270.9;" d="M78.772,83.518c0,1.008,0.048,1.992,0.168,2.785h-1.896l-0.168-1.465h-0.071c-0.648,0.912-1.896,1.729-3.553,1.729
		c-2.353,0-3.553-1.656-3.553-3.336c0-2.809,2.496-4.345,6.984-4.32v-0.24c0-0.937-0.264-2.688-2.64-2.664
		c-1.104,0-2.232,0.312-3.048,0.863l-0.48-1.416c0.96-0.6,2.376-1.008,3.84-1.008c3.553,0,4.417,2.424,4.417,4.729V83.518z
		 M76.732,80.373c-2.305-0.047-4.921,0.361-4.921,2.617c0,1.393,0.912,2.016,1.968,2.016c1.537,0,2.521-0.959,2.857-1.943
		c0.071-0.24,0.096-0.48,0.096-0.672V80.373z"/>
	<path style="enable-background:new 0 0 257.8 270.9;" d="M82.18,77.83c0-1.225-0.024-2.185-0.096-3.145h1.871l0.121,1.92h0.047c0.576-1.08,1.921-2.16,3.841-2.16
		c1.608,0,4.104,0.96,4.104,4.944v6.913h-2.112v-6.697c0-1.872-0.696-3.432-2.688-3.432c-1.367,0-2.447,0.983-2.832,2.16
		c-0.096,0.264-0.145,0.623-0.145,0.984v6.984H82.18V77.83z"/>
	<path style="enable-background:new 0 0 257.8 270.9;" d="M97.852,71.421c0,0.72-0.504,1.296-1.344,1.296c-0.769,0-1.272-0.576-1.272-1.296c0-0.72,0.528-1.32,1.319-1.32
		C97.323,70.101,97.852,70.677,97.852,71.421z M95.499,86.303V74.686h2.112v11.617H95.499z"/>
</g>
</svg>
